HIERARCHY
ROOT SimulationBone
{
	OFFSET 0.000000 0.000000 0.000000
	CHANNELS 6 Xposition Yposition Zposition Zrotation Yrotation Xrotation 
	JOINT Hips
	{
		OFFSET 0.000000 0.000000 0.000000
		CHANNELS 6 Xposition Yposition Zposition Zrotation Yrotation Xrotation 
		JOINT RightUpLeg
		{
			OFFSET 0.103462 1.857844 10.548508
			CHANNELS 3 Zrotation Yrotation Xrotation
			JOINT RightLeg
			{
				OFFSET 43.500000 -0.000046 -0.000008
				CHANNELS 3 Zrotation Yrotation Xrotation
				JOINT RightFoot
				{
					OFFSET 42.372192 0.000000 0.000004
					CHANNELS 3 Zrotation Yrotation Xrotation
					JOINT RightToe
					{
						OFFSET 17.299997 -0.000003 0.000018
						CHANNELS 3 Zrotation Yrotation Xrotation
						End Site
						{
							OFFSET 0.000000 0.000000 0.000000
						}
					}
				}
			}
		}
		JOINT LeftUpLeg
		{
			OFFSET 0.103459 1.857830 -10.548515
			CHANNELS 3 Zrotation Yrotation Xrotation
			JOINT LeftLeg
			{
				OFFSET 43.500046 -0.000034 -0.000006
				CHANNELS 3 Zrotation Yrotation Xrotation
				JOINT LeftFoot
				{
					OFFSET 42.372253 0.000015 -0.000006
					CHANNELS 3 Zrotation Yrotation Xrotation
					JOINT LeftToe
					{
						OFFSET 17.299969 -0.000012 0.000010
						CHANNELS 3 Zrotation Yrotation Xrotation
						End Site
						{
							OFFSET 0.000000 0.000000 0.000000
						}
					}
				}
			}
		}
		JOINT Spine
		{
			OFFSET 6.901964 -2.603727 0.000001
			CHANNELS 3 Zrotation Yrotation Xrotation
			JOINT Spine1
			{
				OFFSET 12.588105 -0.000009 0.000006
				CHANNELS 3 Zrotation Yrotation Xrotation
				JOINT Spine2
				{
					OFFSET 12.343197 0.000007 -0.000002
					CHANNELS 3 Zrotation Yrotation Xrotation
					JOINT Neck
					{
						OFFSET 25.832897 0.000002 -0.000001
						CHANNELS 3 Zrotation Yrotation Xrotation
						JOINT Head
						{
							OFFSET 11.766611 0.000000 0.000004
							CHANNELS 3 Zrotation Yrotation Xrotation
							End Site
							{
								OFFSET 0.000000 0.000000 0.000000
							}
						}
					}
					JOINT RightShoulder
					{
						OFFSET 19.745911 -1.480377 6.000110
						CHANNELS 3 Zrotation Yrotation Xrotation
						JOINT RightArm
						{
							OFFSET 11.284108 -0.000006 -0.000027
							CHANNELS 3 Zrotation Yrotation Xrotation
							JOINT RightForeArm
							{
								OFFSET 33.000046 -0.000010 0.000031
								CHANNELS 3 Zrotation Yrotation Xrotation
								JOINT RightHand
								{
									OFFSET 25.200014 0.000009 0.000001
									CHANNELS 3 Zrotation Yrotation Xrotation
									End Site
									{
										OFFSET 0.000000 0.000000 0.000000
									}
								}
							}
						}
					}
					JOINT LeftShoulder
					{
						OFFSET 19.746105 -1.480358 -6.000092
						CHANNELS 3 Zrotation Yrotation Xrotation
						JOINT LeftArm
						{
							OFFSET 11.284138 -0.000011 -0.000001
							CHANNELS 3 Zrotation Yrotation Xrotation
							JOINT LeftForeArm
							{
								OFFSET 33.000088 0.000023 -0.000007
								CHANNELS 3 Zrotation Yrotation Xrotation
								JOINT LeftHand
								{
									OFFSET 25.199776 0.000128 0.000427
									CHANNELS 3 Zrotation Yrotation Xrotation
									End Site
									{
										OFFSET 0.000000 0.000000 0.000000
									}
								}
							}
						}
					}
				}
			}
		}
	}
}
MOTION
Frames: 11
Frame Time: 0.016667
-142.317030 0.000000 472.401476 0.000000 -77.627727 0.000000 -1.002864 76.525261 0.896617 91.935261 2.585737 176.409680 168.408778 1.103705 172.327626 -71.699056 4.888640 -7.282034 111.355005 4.623901 -1.897415 21.454558 0.003112 0.000021 127.569792 4.153402 178.323043 -42.913166 -1.515443 4.013224 68.491381 -1.826334 2.932524 21.454553 -0.003089 0.000000 7.610068 0.703323 -1.968280 5.182323 1.493531 -3.903600 4.864929 1.469821 -3.912537 19.429796 5.716275 4.113809 -14.815232 -3.865944 5.943374 174.334813 -82.252265 4.199047 -14.001059 55.714609 6.647684 -83.897023 -4.947629 2.422256 -9.307064 -15.597263 16.265686 -130.137962 84.689669 51.870181 44.115347 -35.996605 -63.883674 -106.566216 0.241818 -3.056272 -17.040152 26.077963 -24.073074 
-142.906439 0.000000 476.993827 0.000000 -76.982319 0.000000 -0.650864 76.586775 0.778878 92.053887 2.950628 177.748043 170.519807 -0.064444 174.195327 -72.794631 4.459278 -7.142914 105.980360 4.537500 -0.624079 21.454554 0.003103 0.000024 130.594051 5.060958 176.858579 -32.261350 -0.688243 4.121943 65.644044 -0.355266 7.056467 21.454549 -0.003094 -0.000002 7.414488 0.798312 -2.261727 4.783590 1.688759 -4.489242 4.466410 1.661509 -4.499333 20.581421 6.534778 4.039013 -15.487997 -4.501005 6.092201 166.948238 -82.778573 11.651509 -14.026393 55.099225 6.239265 -88.593207 -2.814164 2.501035 -10.231395 -13.401251 14.684653 -131.030714 85.028891 50.951859 45.994052 -33.885820 -64.834004 -107.998065 0.189719 -3.114076 -16.033158 26.003343 -22.812543 
-143.400549 0.000000 481.399810 0.000000 -76.280696 0.000000 -0.064024 76.332802 0.722275 92.577441 2.677858 178.862031 172.394439 -1.227709 174.955350 -75.099268 4.081219 -6.952681 100.689002 4.415396 -0.920461 21.454555 0.003106 0.000018 132.830854 6.264688 175.105683 -27.453504 0.148591 5.673500 66.119399 -1.053613 8.171193 21.454550 -0.003095 -0.000002 7.309950 0.711477 -2.413996 4.575713 1.517075 -4.798619 4.258713 1.487964 -4.807660 21.104364 7.549761 3.735285 -15.614084 -5.352398 6.074417 161.368762 -83.196188 17.269099 -14.674433 53.958998 7.239681 -93.323811 -1.629858 2.609493 -10.618790 -12.636343 14.333767 -132.518036 85.245917 49.443124 48.358790 -32.333804 -66.055899 -109.039488 0.043709 -3.150073 -15.271804 24.788197 -20.490163 
-143.802870 0.000000 485.626865 0.000000 -75.524281 0.000000 0.559916 75.894010 0.772923 93.226834 2.344847 179.860464 173.679561 -2.582238 175.106961 -78.346896 3.869932 -7.039899 96.312185 4.359733 -2.061035 21.454558 0.003114 0.000009 134.236691 7.466852 174.496039 -26.921458 0.535123 7.358833 66.847228 -2.512804 7.556769 21.454552 -0.003093 -0.000001 7.240387 0.570951 -2.449949 4.441956 1.234693 -4.876655 4.125043 1.205119 -4.883990 21.300740 8.554351 3.309342 -15.606145 -6.133047 5.907398 158.063095 -83.547614 20.587439 -15.737524 52.720276 9.024446 -97.574135 -1.086423 2.753342 -10.881099 -12.696607 14.790374 -134.781819 85.366430 47.159126 50.682359 -31.542980 -67.213395 -109.751669 -0.140985 -3.168461 -14.575321 23.112520 -17.990814 
-144.116912 0.000000 489.682432 0.000000 -74.713860 0.000000 1.020622 75.401070 0.967080 93.730494 2.531347 -179.136092 174.000203 -4.361497 175.160365 -82.275010 3.895288 -7.753331 93.685230 4.644560 -3.352729 21.454562 0.003119 0.000005 134.835747 8.331412 176.446299 -29.154767 0.106297 7.947438 64.824245 -3.239261 6.548805 21.454553 -0.003089 -0.000000 7.149029 0.504370 -2.394844 4.262642 1.095769 -4.769877 3.945699 1.066842 -4.776379 21.479644 9.341201 2.876098 -15.879679 -6.555819 5.618352 157.473928 -83.843034 21.166161 -16.969532 51.804655 10.988935 -100.815797 -0.889586 2.893213 -11.469692 -12.988149 15.620289 -137.978048 85.411857 43.940916 52.480943 -31.755761 -68.024018 -110.195901 -0.309664 -3.175485 -13.664874 21.663753 -16.153855 
-144.346183 0.000000 493.573951 0.000000 -73.849725 0.000000 1.205502 74.928047 1.325416 93.982154 3.625729 -178.054393 173.175402 -6.754662 175.521109 -86.657211 4.132303 -9.255139 93.279363 5.511816 -4.207963 21.454565 0.003115 0.000009 134.703065 8.742130 -178.500763 -33.067664 -1.214524 6.872763 58.841529 -2.388362 6.091411 21.454551 -0.003084 0.000001 7.018610 0.611341 -2.267216 3.999054 1.299834 -4.512455 3.681963 1.272452 -4.520199 21.752848 9.657574 2.513593 -16.596687 -6.365135 5.195545 159.527084 -84.028890 19.086592 -18.072014 51.567278 12.634580 -102.644332 -0.813433 2.968432 -12.654279 -13.087032 16.447434 -141.460050 85.349018 40.439359 53.287162 -33.140738 -68.241289 -110.386998 -0.408473 -3.176218 -12.441084 20.883705 -15.717454 
-144.494193 0.000000 497.308860 0.000000 -72.931771 0.000000 1.361228 74.322594 1.851275 94.521751 5.251911 -177.033756 171.903950 -9.708305 176.047238 -91.368266 4.420876 -10.887257 94.151582 6.575689 -4.428398 21.454565 0.003109 0.000015 134.107540 9.303104 -173.366498 -39.381596 -1.586991 5.720087 55.254385 -1.388610 5.748846 21.454551 -0.003081 0.000002 6.988997 0.879127 -2.057532 3.933086 1.826906 -4.084857 3.615713 1.802086 -4.095795 21.417300 9.055029 2.119644 -16.892817 -5.412924 4.460351 161.901107 -83.946880 16.696671 -18.695391 52.168782 13.812721 -103.172793 -0.857410 2.995925 -14.002322 -13.279349 17.151249 -141.520064 84.966727 40.394998 52.673352 -35.462147 -67.718709 -110.154107 -0.385830 -3.168408 -11.866205 20.214502 -17.164935 
-144.564451 0.000000 500.894602 0.000000 -71.959581 0.000000 1.707720 73.481695 2.507528 95.772309 6.874369 -176.295353 170.844446 -12.943600 176.410282 -96.194560 4.680826 -11.964013 95.223646 7.349595 -4.082230 21.454560 0.003106 0.000015 133.421381 10.459919 -170.924315 -48.540968 0.556952 5.554592 59.652513 -1.638399 5.191776 21.454553 -0.003082 0.000003 7.183359 1.243718 -1.753414 4.316400 2.551372 -3.460533 3.998605 2.530300 -3.475862 19.865252 7.296761 1.657392 -16.041136 -3.755467 3.384644 162.742886 -83.422838 15.871456 -18.530239 53.587171 14.471206 -102.514577 -1.041103 2.992143 -15.016894 -13.960207 17.683088 -137.742396 84.092490 44.240372 50.038769 -38.444400 -66.065253 -109.178755 -0.198030 -3.141320 -12.737437 19.167804 -20.408403 
-144.560468 0.000000 504.338613 0.000000 -70.932499 0.000000 2.008482 72.726067 3.044295 97.066730 8.086303 -176.292572 169.527194 -15.451192 176.322918 -100.496807 4.875988 -12.560182 96.233608 7.790445 -3.824273 21.454558 0.003108 0.000013 133.072424 11.622422 -169.389634 -57.391490 2.724034 5.144192 67.046031 -2.188676 4.279534 21.454555 -0.003085 0.000003 7.498959 1.552586 -1.366059 4.950122 3.161797 -2.665923 4.631879 3.145510 -2.684966 17.631372 5.238280 1.407922 -14.801578 -2.254622 2.575011 164.814088 -82.174981 13.833764 -17.482164 55.271788 14.568000 -100.271704 -1.254651 2.894371 -15.589832 -15.197074 17.959842 -138.591841 82.977910 43.435035 44.182744 -42.098556 -62.021901 -106.735597 0.168740 -3.058579 -14.249059 18.779416 -23.379862 
-144.485751 0.000000 507.648336 0.000000 -69.849686 0.000000 2.028788 72.391473 3.240981 97.676498 8.628007 -177.310554 167.354373 -16.335198 175.693505 -103.663996 4.963920 -12.930252 97.039415 8.018487 -4.175387 21.454561 0.003112 0.000012 133.422603 12.216970 -166.653613 -62.891300 2.239297 4.075668 71.501421 -1.996123 3.187293 21.454553 -0.003090 0.000001 7.790620 1.674462 -0.934172 5.544313 3.391550 -1.788249 5.225781 3.380565 -1.808708 15.475973 3.795253 1.552654 -14.104167 -1.759255 2.526046 168.983822 -80.087196 9.692120 -15.567456 56.728136 14.294836 -96.097222 -1.505406 2.683027 -15.751245 -17.078684 17.896225 -147.253777 81.876547 34.721751 33.947755 -45.965480 -54.238511 -102.373479 0.764626 -2.896546 -15.527223 19.831880 -24.716272 
-144.343812 0.000000 510.831209 0.000000 -68.710175 0.000000 1.929815 72.450127 3.285058 97.739832 8.677268 -178.515998 164.315254 -15.852090 175.104440 -105.639291 4.961513 -13.333872 97.203618 8.261646 -4.554585 21.454565 0.003114 0.000013 134.338687 12.655500 -163.937203 -66.068398 0.878785 3.175575 74.060369 -1.557739 2.327742 21.454551 -0.003095 -0.000001 7.976747 1.647463 -0.571530 5.927755 3.321917 -1.058730 5.609137 3.315341 -1.078788 14.083521 2.925945 1.909591 -14.305561 -2.058207 2.970749 172.570930 -78.026512 6.115199 -12.892422 58.146758 14.894229 -90.348587 -2.446282 2.533523 -15.736232 -20.124280 17.487118 -157.532204 80.779821 24.333022 21.200836 -49.043872 -44.098914 -97.161653 1.845647 -2.752594 -16.285601 19.899211 -27.293908 
